# xmcd
#
# Track frame offsets:
#	150
#	17417
#	37400
#	59652
#	76725
#	105615
#	128510
#	161242
#	181505
#
# Disc length: 2733 seconds
#
# Revision: 2
# Processed by: cddbd v1.4PL0 Copyright (c) Steve Scherf et al.
# Submitted via: MusicWizard 6.0.2
#
DISCID=6a0aab09
DTITLE=Eric Burdon and Jimmy Whitherspoon - Black and White Blues
DYEAR=1976
DGENRE=Blues
TTITLE0=I've Been Drifting - Once Upon A Time
TTITLE1=Steam Roller
TTITLE2=The Laws Must Change
TTITLE3=Have Mercy Judge
TTITLE4=Goin' Down Slow
TTITLE5=Soledad
TTITLE6=Home Dream
TTITLE7=Headin' For Home
TTITLE8=The Time Has Come
EXTD=
EXTT0=
EXTT1=
EXTT2=
EXTT3=
EXTT4=
EXTT5=
EXTT6=
EXTT7=
EXTT8=
PLAYORDER=
